<svg xmlns="http://www.w3.org/2000/svg" width="320" height="320" viewBox="0 0 320 320" role="img" aria-labelledby="title desc">
  <title id="title">Campus Bites payment QR placeholder</title>
  <desc id="desc">Replace this placeholder with your UPI QR code image.</desc>
  <rect width="320" height="320" fill="#ffffff"/>
  <rect x="16" y="16" width="288" height="288" rx="18" fill="#fff8c7" stroke="#111827" stroke-width="6"/>
  <rect x="42" y="42" width="72" height="72" fill="#111827"/>
  <rect x="58" y="58" width="40" height="40" fill="#ffffff"/>
  <rect x="70" y="70" width="16" height="16" fill="#111827"/>
  <rect x="206" y="42" width="72" height="72" fill="#111827"/>
  <rect x="222" y="58" width="40" height="40" fill="#ffffff"/>
  <rect x="234" y="70" width="16" height="16" fill="#111827"/>
  <rect x="42" y="206" width="72" height="72" fill="#111827"/>
  <rect x="58" y="222" width="40" height="40" fill="#ffffff"/>
  <rect x="70" y="234" width="16" height="16" fill="#111827"/>
  <g fill="#111827">
    <rect x="142" y="44" width="18" height="18"/>
    <rect x="170" y="44" width="18" height="18"/>
    <rect x="142" y="72" width="46" height="18"/>
    <rect x="132" y="120" width="18" height="18"/>
    <rect x="160" y="120" width="18" height="18"/>
    <rect x="188" y="120" width="46" height="18"/>
    <rect x="132" y="150" width="46" height="18"/>
    <rect x="206" y="150" width="18" height="18"/>
    <rect x="234" y="150" width="18" height="18"/>
    <rect x="132" y="178" width="18" height="18"/>
    <rect x="178" y="178" width="74" height="18"/>
    <rect x="132" y="206" width="46" height="18"/>
    <rect x="206" y="206" width="18" height="18"/>
    <rect x="252" y="206" width="18" height="18"/>
    <rect x="132" y="234" width="18" height="18"/>
    <rect x="178" y="234" width="18" height="18"/>
    <rect x="224" y="234" width="46" height="18"/>
    <rect x="132" y="262" width="74" height="18"/>
    <rect x="234" y="262" width="18" height="18"/>
  </g>
  <rect x="72" y="138" width="176" height="44" rx="12" fill="#ffffff" stroke="#111827" stroke-width="4"/>
  <text x="160" y="166" text-anchor="middle" font-family="Arial, sans-serif" font-size="18" font-weight="700" fill="#111827">Add Your QR</text>
</svg>
